<svg width="162" height="22" viewBox="0 0 162 22" fill="none" xmlns="http://www.w3.org/2000/svg">
<path d="M6.56 15.3994C6.56 15.6341 6.56533 15.8368 6.576 16.0074C6.58667 16.1781 6.59733 16.3594 6.608 16.5514L7.712 16.7114V17.0474C7.44533 17.1861 7.14667 17.3088 6.816 17.4154C6.496 17.5221 6.18667 17.6021 5.888 17.6554H5.488C5.38133 17.4101 5.31733 17.1434 5.296 16.8554C5.27467 16.5568 5.25867 16.2314 5.248 15.8794H5.168C5.12533 16.0928 5.04 16.3114 4.912 16.5354C4.79467 16.7488 4.63467 16.9408 4.432 17.1114C4.24 17.2821 4.01067 17.4208 3.744 17.5274C3.47733 17.6341 3.17333 17.6874 2.832 17.6874C2.18133 17.6874 1.648 17.4901 1.232 17.0954C0.826667 16.7008 0.624 16.1834 0.624 15.5434C0.624 15.0528 0.72 14.6528 0.912 14.3434C1.11467 14.0234 1.408 13.7728 1.792 13.5914C2.176 13.4101 2.65067 13.2821 3.216 13.2074C3.78133 13.1221 4.43733 13.0581 5.184 13.0154C5.22667 12.5568 5.23733 12.1461 5.216 11.7834C5.20533 11.4101 5.14667 11.0954 5.04 10.8394C4.944 10.5728 4.79467 10.3701 4.592 10.2314C4.4 10.0821 4.144 10.0074 3.824 10.0074C3.67467 10.0074 3.504 10.0181 3.312 10.0394C3.13067 10.0501 2.94933 10.0928 2.768 10.1674L2.016 12.0874H1.6C1.49333 11.7674 1.39733 11.4368 1.312 11.0954C1.23733 10.7541 1.18933 10.4181 1.168 10.0874C1.57333 9.84209 2.02133 9.65009 2.512 9.51142C3.01333 9.37276 3.568 9.30342 4.176 9.30342C4.72 9.30342 5.152 9.38342 5.472 9.54342C5.80267 9.69276 6.05333 9.89009 6.224 10.1354C6.39467 10.3808 6.50667 10.6528 6.56 10.9514C6.61333 11.2501 6.64 11.5488 6.64 11.8474C6.64 12.4874 6.624 13.1061 6.592 13.7034C6.57067 14.2901 6.56 14.8554 6.56 15.3994ZM3.472 16.6954C3.73867 16.6954 3.97333 16.6421 4.176 16.5354C4.37867 16.4288 4.54933 16.3008 4.688 16.1514C4.82667 16.0021 4.93867 15.8528 5.024 15.7034C5.10933 15.5434 5.168 15.4101 5.2 15.3034V13.6234C4.58133 13.6234 4.07467 13.6554 3.68 13.7194C3.28533 13.7834 2.976 13.8848 2.752 14.0234C2.528 14.1621 2.37333 14.3381 2.288 14.5514C2.20267 14.7541 2.16 14.9888 2.16 15.2554C2.16 15.7141 2.27733 16.0714 2.512 16.3274C2.74667 16.5728 3.06667 16.6954 3.472 16.6954Z" fill="white"/>
<path d="M36.3281 17.4954H35.8125L34.9843 16.347C34.7812 16.5293 34.5651 16.7012 34.3359 16.8626C34.1119 17.0189 33.875 17.1569 33.625 17.2767C33.375 17.3913 33.1172 17.4824 32.8515 17.5501C32.5911 17.6178 32.3255 17.6517 32.0547 17.6517C31.4661 17.6517 30.9114 17.5527 30.3906 17.3548C29.875 17.1569 29.4218 16.8704 29.0312 16.4954C28.6458 16.1152 28.3411 15.6517 28.1172 15.1048C27.8932 14.5579 27.7812 13.9355 27.7812 13.2376C27.7812 12.5866 27.8932 11.9902 28.1172 11.4485C28.3411 10.9017 28.6458 10.4329 29.0312 10.0423C29.4218 9.65167 29.875 9.34959 30.3906 9.13605C30.9114 8.9173 31.4661 8.80792 32.0547 8.80792C32.3255 8.80792 32.5937 8.84178 32.8593 8.90948C33.125 8.97719 33.3828 9.07094 33.6328 9.19073C33.8828 9.31053 34.1198 9.45115 34.3437 9.61261C34.5729 9.77407 34.7864 9.94855 34.9843 10.136L35.8125 9.14386H36.3281V17.4954ZM34.1797 13.2376C34.1797 12.9459 34.1224 12.6647 34.0078 12.3939C33.8984 12.1178 33.7474 11.8756 33.5547 11.6673C33.3619 11.4538 33.1354 11.2845 32.875 11.1595C32.6198 11.0293 32.3463 10.9642 32.0547 10.9642C31.763 10.9642 31.4869 11.0137 31.2265 11.1126C30.9713 11.2116 30.7474 11.3574 30.5547 11.5501C30.3672 11.7428 30.2187 11.9824 30.1093 12.2689C30 12.5501 29.9453 12.873 29.9453 13.2376C29.9453 13.6022 30 13.9277 30.1093 14.2142C30.2187 14.4954 30.3672 14.7324 30.5547 14.9251C30.7474 15.1178 30.9713 15.2637 31.2265 15.3626C31.4869 15.4616 31.763 15.511 32.0547 15.511C32.3463 15.511 32.6198 15.4485 32.875 15.3235C33.1354 15.1933 33.3619 15.0241 33.5547 14.8157C33.7474 14.6022 33.8984 14.36 34.0078 14.0892C34.1224 13.8131 34.1797 13.5293 34.1797 13.2376Z" fill="white"/>
<path d="M146.246 17.4954H145.73L144.902 16.347C144.699 16.5293 144.483 16.7012 144.254 16.8626C144.03 17.0189 143.793 17.1569 143.543 17.2767C143.293 17.3913 143.035 17.4824 142.769 17.5501C142.509 17.6178 142.243 17.6517 141.972 17.6517C141.384 17.6517 140.829 17.5527 140.308 17.3548C139.793 17.1569 139.339 16.8704 138.949 16.4954C138.563 16.1152 138.259 15.6517 138.035 15.1048C137.811 14.5579 137.699 13.9355 137.699 13.2376C137.699 12.5866 137.811 11.9902 138.035 11.4485C138.259 10.9017 138.563 10.4329 138.949 10.0423C139.339 9.65167 139.793 9.34959 140.308 9.13605C140.829 8.9173 141.384 8.80792 141.972 8.80792C142.243 8.80792 142.511 8.84178 142.777 8.90948C143.043 8.97719 143.3 9.07094 143.55 9.19073C143.8 9.31053 144.037 9.45115 144.261 9.61261C144.491 9.77407 144.704 9.94855 144.902 10.136L145.73 9.14386H146.246V17.4954ZM144.097 13.2376C144.097 12.9459 144.04 12.6647 143.925 12.3939C143.816 12.1178 143.665 11.8756 143.472 11.6673C143.28 11.4538 143.053 11.2845 142.793 11.1595C142.537 11.0293 142.264 10.9642 141.972 10.9642C141.681 10.9642 141.405 11.0137 141.144 11.1126C140.889 11.2116 140.665 11.3574 140.472 11.5501C140.285 11.7428 140.136 11.9824 140.027 12.2689C139.918 12.5501 139.863 12.873 139.863 13.2376C139.863 13.6022 139.918 13.9277 140.027 14.2142C140.136 14.4954 140.285 14.7324 140.472 14.9251C140.665 15.1178 140.889 15.2637 141.144 15.3626C141.405 15.4616 141.681 15.511 141.972 15.511C142.264 15.511 142.537 15.4485 142.793 15.3235C143.053 15.1933 143.28 15.0241 143.472 14.8157C143.665 14.6022 143.816 14.36 143.925 14.0892C144.04 13.8131 144.097 13.5293 144.097 13.2376Z" fill="white"/>
<path d="M136.312 17.4954H134.078V9.49542C134.078 9.33917 134.046 9.19334 133.984 9.05792C133.927 8.92251 133.846 8.80532 133.742 8.70636C133.643 8.60219 133.525 8.52146 133.39 8.46417C133.255 8.40688 133.109 8.37823 132.953 8.37823C132.796 8.37823 132.65 8.40688 132.515 8.46417C132.38 8.52146 132.26 8.60219 132.156 8.70636C132.057 8.80532 131.979 8.92251 131.921 9.05792C131.864 9.19334 131.835 9.33917 131.835 9.49542V17.4954H129.593V9.49542C129.593 9.33917 129.565 9.19334 129.507 9.05792C129.45 8.92251 129.369 8.80532 129.265 8.70636C129.166 8.60219 129.049 8.52146 128.913 8.46417C128.778 8.40688 128.632 8.37823 128.476 8.37823C128.32 8.37823 128.174 8.40688 128.038 8.46417C127.903 8.52146 127.783 8.60219 127.679 8.70636C127.58 8.80532 127.502 8.92251 127.445 9.05792C127.387 9.19334 127.359 9.33917 127.359 9.49542V17.4954H125.117V9.49542C125.117 9.03188 125.203 8.59698 125.374 8.19073C125.552 7.77928 125.791 7.42251 126.093 7.12042C126.4 6.81313 126.757 6.57355 127.163 6.40167C127.575 6.22459 128.012 6.13605 128.476 6.13605C128.893 6.13605 129.294 6.21157 129.679 6.36261C130.065 6.50844 130.411 6.72198 130.718 7.00323C131.025 6.72198 131.369 6.50844 131.749 6.36261C132.135 6.21157 132.536 6.13605 132.953 6.13605C133.416 6.13605 133.851 6.22459 134.257 6.40167C134.669 6.57355 135.025 6.81313 135.328 7.12042C135.635 7.42251 135.874 7.77928 136.046 8.19073C136.223 8.59698 136.312 9.03188 136.312 9.49542V17.4954Z" fill="white"/>
<path d="M160.724 17.523H156.756V17.059C156.969 16.9737 157.182 16.9043 157.396 16.851C157.609 16.787 157.828 16.7283 158.052 16.675V9.47501L158.116 7.60301H157.988L157.46 9.31501L154.18 17.523H153.764L150.644 9.31501L150.068 7.44301H149.924L149.94 9.47501V16.675C150.142 16.7177 150.345 16.771 150.548 16.835C150.75 16.899 150.953 16.9737 151.156 17.059V17.523H147.812V17.059C148.014 16.9737 148.222 16.899 148.436 16.835C148.66 16.7603 148.884 16.7017 149.108 16.659V7.18701C148.884 7.14434 148.66 7.09101 148.436 7.02701C148.222 6.95234 148.009 6.87234 147.796 6.78701V6.32301H151.076L153.86 13.635L154.404 15.283H154.42L154.964 13.603L157.844 6.32301H160.74V6.78701C160.548 6.87234 160.35 6.95234 160.148 7.02701C159.945 7.09101 159.737 7.14434 159.524 7.18701V16.691C159.748 16.7337 159.956 16.787 160.148 16.851C160.35 16.9043 160.542 16.9737 160.724 17.059V17.523Z" fill="white"/>
<path d="M51.1311 16.5189C50.9592 16.6751 50.7743 16.8235 50.5764 16.9642C50.3837 17.0996 50.1806 17.2194 49.967 17.3235C49.7535 17.4225 49.5321 17.5006 49.3029 17.5579C49.079 17.6204 48.8498 17.6517 48.6154 17.6517C48.0998 17.6517 47.6154 17.5605 47.1623 17.3782C46.7092 17.1959 46.3108 16.9381 45.967 16.6048C45.6285 16.2663 45.3602 15.8574 45.1623 15.3782C44.9696 14.8939 44.8733 14.3522 44.8733 13.7532V9.12823H46.9983V13.7532C46.9983 14.0345 47.0399 14.2871 47.1233 14.511C47.2118 14.7298 47.329 14.9147 47.4748 15.0657C47.6207 15.2168 47.7899 15.3314 47.9826 15.4095C48.1806 15.4876 48.3915 15.5267 48.6154 15.5267C48.8342 15.5267 49.0399 15.4772 49.2326 15.3782C49.4306 15.2741 49.6024 15.1387 49.7483 14.972C49.8941 14.8053 50.0087 14.6178 50.092 14.4095C50.1753 14.1959 50.217 13.9772 50.217 13.7532V9.12823H52.3498V17.4954H51.8342L51.1311 16.5189Z" fill="white"/>
<path d="M107.561 16.5189C107.389 16.6751 107.204 16.8235 107.006 16.9642C106.813 17.0996 106.61 17.2194 106.397 17.3235C106.183 17.4225 105.962 17.5006 105.733 17.5579C105.509 17.6204 105.279 17.6517 105.045 17.6517C104.529 17.6517 104.045 17.5605 103.592 17.3782C103.139 17.1959 102.74 16.9381 102.397 16.6048C102.058 16.2663 101.79 15.8574 101.592 15.3782C101.399 14.8939 101.303 14.3522 101.303 13.7532V9.12823H103.428V13.7532C103.428 14.0345 103.47 14.2871 103.553 14.511C103.641 14.7298 103.759 14.9147 103.904 15.0657C104.05 15.2168 104.22 15.3314 104.412 15.4095C104.61 15.4876 104.821 15.5267 105.045 15.5267C105.264 15.5267 105.47 15.4772 105.662 15.3782C105.86 15.2741 106.032 15.1387 106.178 14.972C106.324 14.8053 106.438 14.6178 106.522 14.4095C106.605 14.1959 106.647 13.9772 106.647 13.7532V9.12823H108.779V17.4954H108.264L107.561 16.5189Z" fill="white"/>
<path d="M57.6197 17.4954H55.9381V10.7515H53.404V9.06403H60.148V10.7515H57.6197V17.4954Z" fill="white"/>
<path d="M44.1701 14.9626C44.1701 15.3121 44.1034 15.64 43.9699 15.9463C43.8363 16.2526 43.6538 16.5216 43.4221 16.7533C43.1943 16.981 42.9273 17.1616 42.621 17.2952C42.3147 17.4287 41.9868 17.4954 41.6373 17.4954H37.414V9.04883H41.6373C41.9868 9.04883 42.3147 9.11558 42.621 9.2491C42.9273 9.38261 43.1943 9.56521 43.4221 9.79689C43.6538 10.0246 43.8363 10.2917 43.9699 10.598C44.1034 10.9043 44.1701 11.2321 44.1701 11.5816C44.1701 11.7387 44.1485 11.8997 44.1053 12.0646C44.0621 12.2296 44.0013 12.3886 43.9227 12.5417C43.8442 12.6949 43.75 12.8343 43.64 12.9599C43.5301 13.0856 43.4083 13.1897 43.2748 13.2721C43.4123 13.3467 43.5359 13.4488 43.6459 13.5784C43.7558 13.7041 43.8501 13.8435 43.9286 13.9966C44.0072 14.1498 44.0661 14.3108 44.1053 14.4796C44.1485 14.6445 44.1701 14.8055 44.1701 14.9626ZM39.1045 15.8049H41.6373C41.7551 15.8049 41.8651 15.7833 41.9672 15.7401C42.0693 15.6969 42.1576 15.638 42.2322 15.5634C42.3108 15.4849 42.3716 15.3946 42.4148 15.2925C42.458 15.1904 42.4796 15.0804 42.4796 14.9626C42.4796 14.8448 42.458 14.7349 42.4148 14.6328C42.3716 14.5307 42.3108 14.4423 42.2322 14.3677C42.1576 14.2892 42.0693 14.2283 41.9672 14.1851C41.8651 14.1419 41.7551 14.1203 41.6373 14.1203H39.1045V15.8049ZM39.1045 12.4298H41.6373C41.7551 12.4298 41.8651 12.4082 41.9672 12.365C42.0693 12.3218 42.1576 12.2629 42.2322 12.1883C42.3108 12.1098 42.3716 12.0195 42.4148 11.9174C42.458 11.8113 42.4796 11.6994 42.4796 11.5816C42.4796 11.4638 42.458 11.3539 42.4148 11.2518C42.3716 11.1497 42.3108 11.0613 42.2322 10.9867C42.1576 10.9082 42.0693 10.8473 41.9672 10.8041C41.8651 10.7609 41.7551 10.7393 41.6373 10.7393H39.1045V12.4298Z" fill="white"/>
<path d="M22.3481 17.4912L20.784 17.4017L20.8758 10.5074L22.388 10.9618L22.3481 17.4912Z" fill="white"/>
<path d="M21.7797 15.3664H21.4163L20.8326 14.5333C20.6895 14.6655 20.5371 14.7902 20.3756 14.9074C20.2178 15.0207 20.0508 15.1208 19.8746 15.2078C19.6984 15.2909 19.5167 15.357 19.3295 15.4061C19.1459 15.4552 18.9587 15.4798 18.7679 15.4798C18.3531 15.4798 17.9621 15.408 17.5951 15.2644C17.2316 15.1208 16.9123 14.913 16.637 14.641C16.3654 14.3652 16.1506 14.0289 15.9928 13.6321C15.8349 13.2354 15.756 12.7839 15.756 12.2776C15.756 11.8053 15.8349 11.3726 15.9928 10.9797C16.1506 10.583 16.3654 10.2429 16.637 9.95951C16.9123 9.67613 17.2316 9.45698 17.5951 9.30207C17.9621 9.14337 18.3531 9.06403 18.7679 9.06403C18.9587 9.06403 19.1478 9.08859 19.335 9.13771C19.5222 9.18682 19.7039 9.25484 19.8801 9.34174C20.0563 9.42864 20.2233 9.53066 20.3811 9.64779C20.5427 9.76492 20.6932 9.8915 20.8326 10.0275L21.4163 9.30773H21.7797V15.3664ZM20.2655 12.2776C20.2655 12.066 20.2251 11.862 20.1444 11.6655C20.0673 11.4652 19.9608 11.2895 19.825 11.1384C19.6892 10.9835 19.5295 10.8607 19.346 10.77C19.1661 10.6755 18.9734 10.6283 18.7679 10.6283C18.5623 10.6283 18.3677 10.6642 18.1842 10.736C18.0043 10.8078 17.8465 10.9136 17.7107 11.0534C17.5785 11.1932 17.4739 11.367 17.3968 11.5748C17.3197 11.7788 17.2812 12.0131 17.2812 12.2776C17.2812 12.5421 17.3197 12.7782 17.3968 12.986C17.4739 13.1901 17.5785 13.362 17.7107 13.5018C17.8465 13.6416 18.0043 13.7474 18.1842 13.8192C18.3677 13.891 18.5623 13.9269 18.7679 13.9269C18.9734 13.9269 19.1661 13.8815 19.346 13.7908C19.5295 13.6964 19.6892 13.5736 19.825 13.4224C19.9608 13.2675 20.0673 13.0918 20.1444 12.8954C20.2251 12.6951 20.2655 12.4892 20.2655 12.2776Z" fill="white"/>
<path d="M21.3904 15.3664H21.7538L22.3374 14.5333C22.4806 14.6655 22.6329 14.7902 22.7944 14.9074C22.9523 15.0207 23.1193 15.1208 23.2955 15.2078C23.4717 15.2909 23.6534 15.357 23.8406 15.4061C24.0241 15.4552 24.2113 15.4798 24.4022 15.4798C24.817 15.4798 25.2079 15.408 25.575 15.2644C25.9384 15.1208 26.2577 14.913 26.5331 14.641C26.8047 14.3652 27.0194 14.0289 27.1773 13.6321C27.3351 13.2354 27.414 12.7839 27.414 12.2776C27.414 11.8053 27.3351 11.3726 27.1773 10.9797C27.0194 10.583 26.8047 10.2429 26.5331 9.95951C26.2577 9.67613 25.9384 9.45698 25.575 9.30207C25.2079 9.14337 24.817 9.06403 24.4022 9.06403C24.2113 9.06403 24.0223 9.08859 23.8351 9.13771C23.6479 9.18682 23.4662 9.25484 23.29 9.34174C23.1138 9.42864 22.9467 9.53066 22.7889 9.64779C22.6274 9.76492 22.4769 9.8915 22.3374 10.0275L21.7538 9.30773H21.3904V15.3664ZM22.9045 12.2776C22.9045 12.066 22.9449 11.862 23.0257 11.6655C23.1028 11.4652 23.2092 11.2895 23.345 11.1384C23.4808 10.9835 23.6405 10.8607 23.8241 10.77C24.0039 10.6755 24.1966 10.6283 24.4022 10.6283C24.6078 10.6283 24.8023 10.6642 24.9858 10.736C25.1657 10.8078 25.3235 10.9136 25.4594 11.0534C25.5915 11.1932 25.6961 11.367 25.7732 11.5748C25.8503 11.7788 25.8888 12.0131 25.8888 12.2776C25.8888 12.5421 25.8503 12.7782 25.7732 12.986C25.6961 13.1901 25.5915 13.362 25.4594 13.5018C25.3235 13.6416 25.1657 13.7474 24.9858 13.8192C24.8023 13.891 24.6078 13.9269 24.4022 13.9269C24.1966 13.9269 24.0039 13.8815 23.8241 13.7908C23.6405 13.6964 23.4808 13.5736 23.345 13.4224C23.2092 13.2675 23.1028 13.0918 23.0257 12.8954C22.9449 12.6951 22.9045 12.4892 22.9045 12.2776Z" fill="white"/>
<path d="M10.8002 17.523L8.91612 17.0813L11.376 9.04883L13.26 9.49054L10.8002 17.523Z" fill="white"/>
<path d="M15.432 17.0813L13.5479 17.523L11.2542 9.49053L13.2039 9.49055L15.432 17.0813Z" fill="white"/>
<path d="M111.484 17.523L109.6 17.0813L112.06 9.04883L113.944 9.49054L111.484 17.523Z" fill="white"/>
<path d="M116.116 17.0813L114.232 17.523L111.938 9.49053L113.888 9.49055L116.116 17.0813Z" fill="white"/>
<path d="M71.4488 17H68.0088V16.6C68.2114 16.4827 68.3981 16.3973 68.5688 16.344C68.7394 16.28 68.9048 16.2373 69.0648 16.216V9.8C68.8408 9.74667 68.6381 9.688 68.4568 9.624C68.2754 9.56 68.1261 9.49067 68.0088 9.416V9H76.5368V9.416C76.3981 9.50133 76.2434 9.58133 76.0728 9.656C75.9021 9.73067 75.7048 9.77867 75.4808 9.8V16.216C75.8434 16.28 76.1954 16.408 76.5368 16.6V17H73.0968V16.6C73.2034 16.5253 73.3261 16.456 73.4648 16.392C73.6141 16.328 73.8061 16.2693 74.0408 16.216V9.704H70.5048V16.216C70.7181 16.28 70.8994 16.344 71.0488 16.408C71.1981 16.472 71.3314 16.536 71.4488 16.6V17ZM77.822 13C77.822 12.328 77.9073 11.736 78.078 11.224C78.2593 10.7013 78.5153 10.264 78.846 9.912C79.1767 9.54933 79.5713 9.27733 80.03 9.096C80.4993 8.904 81.0167 8.808 81.582 8.808C82.2433 8.808 82.814 8.90933 83.294 9.112C83.774 9.31467 84.1633 9.60267 84.462 9.976C84.7713 10.3387 84.9953 10.776 85.134 11.288C85.2833 11.8 85.358 12.3707 85.358 13C85.358 14.344 85.0167 15.3787 84.334 16.104C83.6513 16.8293 82.734 17.192 81.582 17.192C80.942 17.192 80.3873 17.096 79.918 16.904C79.4487 16.7013 79.0593 16.4187 78.75 16.056C78.4407 15.6827 78.206 15.24 78.046 14.728C77.8967 14.2053 77.822 13.6293 77.822 13ZM79.358 13C79.358 13.48 79.4007 13.9333 79.486 14.36C79.582 14.7867 79.726 15.16 79.918 15.48C80.1207 15.7893 80.382 16.0347 80.702 16.216C81.022 16.3973 81.406 16.488 81.854 16.488C82.43 16.488 82.8993 16.2053 83.262 15.64C83.6353 15.0747 83.822 14.1947 83.822 13C83.822 12.5093 83.774 12.056 83.678 11.64C83.5927 11.2133 83.454 10.8453 83.262 10.536C83.07 10.216 82.8247 9.96533 82.526 9.784C82.2273 9.60267 81.87 9.512 81.454 9.512C80.8247 9.512 80.318 9.79467 79.934 10.36C79.55 10.9253 79.358 11.8053 79.358 13Z" fill="white"/>
<path d="M119.56 12.264C119.741 12.2427 119.944 12.216 120.168 12.184C120.392 12.152 120.717 12.136 121.144 12.136C122.018 12.136 122.706 12.3227 123.208 12.696C123.709 13.0693 123.96 13.656 123.96 14.456C123.96 14.8827 123.874 15.2613 123.704 15.592C123.544 15.912 123.32 16.184 123.032 16.408C122.744 16.6213 122.397 16.7867 121.992 16.904C121.586 17.0107 121.144 17.064 120.664 17.064C120.376 17.064 120.05 17.0533 119.688 17.032C119.336 17.0107 118.957 17 118.552 17H117.064V16.6C117.224 16.5147 117.394 16.4453 117.576 16.392C117.757 16.328 117.938 16.2693 118.12 16.216V9.8C117.917 9.75733 117.73 9.704 117.56 9.64C117.389 9.576 117.224 9.50133 117.064 9.416V9H120.52V9.416C120.264 9.56533 119.944 9.69333 119.56 9.8V12.264ZM119.56 16.312C119.698 16.3227 119.837 16.3333 119.976 16.344C120.114 16.3547 120.258 16.36 120.408 16.36C121.026 16.36 121.506 16.2053 121.848 15.896C122.2 15.5867 122.376 15.1013 122.376 14.44C122.376 14.1413 122.328 13.8907 122.232 13.688C122.136 13.4747 122.008 13.3093 121.848 13.192C121.688 13.064 121.496 12.9733 121.272 12.92C121.058 12.8667 120.829 12.84 120.584 12.84C120.413 12.84 120.237 12.8453 120.056 12.856C119.885 12.856 119.72 12.872 119.56 12.904V16.312Z" fill="white"/>
<path d="M95.4228 19.9727V5.35906H96.7638V19.9727H95.4228ZM95.4228 17.1772C94.8319 17.1772 94.2941 17.0712 93.8092 16.8591C93.3244 16.6431 92.9077 16.3382 92.5592 15.9443C92.2107 15.5466 91.9418 15.0712 91.7524 14.5181C91.563 13.9651 91.4683 13.3515 91.4683 12.6772C91.4683 11.9954 91.563 11.378 91.7524 10.825C91.9418 10.2681 92.2107 9.79088 92.5592 9.39315C92.9077 8.99542 93.3244 8.6905 93.8092 8.47838C94.2941 8.26247 94.8319 8.15451 95.4228 8.15451H95.8319V17.1772H95.4228ZM95.4228 15.9727H95.6501V9.35906H95.4228C94.9759 9.35906 94.5876 9.44997 94.2581 9.63179C93.9285 9.80982 93.6558 10.0541 93.4399 10.3647C93.2278 10.6716 93.0687 11.0238 92.9626 11.4216C92.8603 11.8193 92.8092 12.2378 92.8092 12.6772C92.8092 13.2606 92.902 13.8022 93.0876 14.3022C93.2732 14.8022 93.5592 15.2056 93.9456 15.5125C94.3319 15.8193 94.8244 15.9727 95.4228 15.9727ZM96.7638 17.1772H96.3547V8.15451H96.7638C97.3547 8.15451 97.8925 8.26247 98.3774 8.47838C98.8622 8.6905 99.2789 8.99542 99.6274 9.39315C99.9759 9.79088 100.245 10.2681 100.434 10.825C100.624 11.378 100.718 11.9954 100.718 12.6772C100.718 13.3515 100.624 13.9651 100.434 14.5181C100.245 15.0712 99.9759 15.5466 99.6274 15.9443C99.2789 16.3382 98.8622 16.6431 98.3774 16.8591C97.8925 17.0712 97.3547 17.1772 96.7638 17.1772ZM96.7638 15.9727C97.2145 15.9727 97.6028 15.8856 97.9285 15.7113C98.2581 15.5333 98.5289 15.2909 98.741 14.9841C98.9569 14.6735 99.116 14.3212 99.2183 13.9272C99.3244 13.5295 99.3774 13.1128 99.3774 12.6772C99.3774 12.0939 99.2846 11.5503 99.099 11.0466C98.9134 10.5428 98.6274 10.1356 98.241 9.82497C97.8547 9.51436 97.3622 9.35906 96.7638 9.35906H96.5365V15.9727H96.7638Z" fill="white"/>
</svg>
